<?xml version="1.0" standalone="no"?>
<!DOCTYPE svg PUBLIC "-//W3C//DTD SVG 20010904//EN"
 "http://www.w3.org/TR/2001/REC-SVG-20010904/DTD/svg10.dtd">
<svg version="1.0" xmlns="http://www.w3.org/2000/svg"
 width="416.000000pt" height="416.000000pt" viewBox="0 0 416.000000 416.000000"
 preserveAspectRatio="xMidYMid meet">

<g transform="translate(0.000000,416.000000) scale(0.100000,-0.100000)"
fill="#000000" stroke="none">
<path d="M0 2080 l0 -2080 2080 0 2080 0 0 2080 0 2080 -2080 0 -2080 0 0
-2080z m2865 1410 c40 -68 77 -125 81 -127 5 -1 42 56 82 127 l73 130 164 0
164 0 -68 -117 c-37 -65 -121 -210 -186 -323 -244 -423 -559 -966 -582 -1002
l-23 -38 -150 0 c-83 0 -150 -2 -150 -5 0 -3 69 -123 153 -268 287 -490 429
-738 434 -756 3 -11 -25 -71 -66 -143 -39 -69 -71 -130 -71 -137 0 -8 47 -11
158 -11 l158 0 77 -135 c42 -75 77 -140 77 -145 0 -16 -1705 -13 -1718 3 -11
13 -152 267 -152 273 0 2 311 4 690 4 380 0 690 4 690 8 0 4 -4 12 -9 18 -5 5
-92 153 -194 329 -342 593 -482 829 -492 832 -5 1 -25 -25 -44 -60 -19 -34
-151 -262 -294 -507 -143 -245 -278 -476 -300 -515 -78 -137 -200 -340 -215
-357 -12 -14 -29 -18 -76 -16 l-61 2 62 3 62 4 31 53 c29 52 39 82 22 72 -9
-6 -22 2 -40 26 -12 15 -11 22 8 48 19 26 19 31 6 36 -10 4 -16 18 -16 39 0
18 -7 38 -15 45 -8 7 -15 16 -15 21 0 13 -37 48 -44 42 -18 -18 -1 22 37 87
24 41 164 282 310 535 l266 460 155 0 c86 0 156 1 156 2 0 2 -17 31 -39 66
-21 35 -156 267 -300 516 l-261 452 76 135 c43 74 80 131 84 127 4 -4 45 -73
92 -153 204 -349 601 -1010 607 -1010 4 0 23 28 43 63 130 224 638 1109 638
1112 0 2 -383 5 -851 7 l-850 3 -17 23 c-9 12 -33 52 -52 90 -19 37 -47 88
-62 115 l-28 47 856 -2 856 -3 73 -125z m-138 -277 c-3 -5 -44 -75 -92 -158
-49 -82 -138 -235 -198 -340 -60 -104 -127 -221 -150 -258 l-40 -68 -37 63
c-20 35 -80 136 -132 224 -53 89 -146 248 -207 353 l-110 191 485 0 c267 0
483 -3 481 -7z m-575 -1683 c232 -399 340 -591 336 -596 -3 -2 -221 -3 -486
-2 l-481 3 78 135 c43 74 151 262 241 418 132 230 165 281 175 270 7 -7 69
-110 137 -228z m-1162 -728 c0 -5 -7 -17 -15 -28 -14 -18 -14 -17 -4 9 12 27
19 34 19 19z m-45 -83 c-9 -17 -19 -29 -22 -26 -5 5 25 57 33 57 3 0 -3 -14
-11 -31z m194 -115 c-6 -8 -8 -14 -3 -14 10 0 -17 -20 -28 -20 -3 0 0 14 9 30
8 17 19 28 24 24 6 -4 6 -11 -2 -20z"/>
</g>
</svg>
